<svg width="52" height="47" viewBox="0 0 52 47" fill="none" xmlns="http://www.w3.org/2000/svg">
<path d="M26 33.75V33.7758M26 18.25V23.4167V18.25Z" stroke="#ED4C5C" stroke-width="4" stroke-linecap="round" stroke-linejoin="round"/>
<path d="M7.91675 44.0842H44.0834C44.9264 44.0783 45.7551 43.8663 46.4973 43.4665C47.2394 43.0668 47.8725 42.4915 48.3413 41.7909C48.8101 41.0902 49.1003 40.2856 49.1867 39.447C49.273 38.6085 49.1529 37.7615 48.8368 36.9801L30.4951 5.33425C30.0483 4.52669 29.3933 3.85356 28.5983 3.38483C27.8032 2.9161 26.8972 2.66888 25.9742 2.66888C25.0513 2.66888 24.1453 2.9161 23.3502 3.38483C22.5552 3.85356 21.9002 4.52669 21.4534 5.33425L3.11175 36.9801C2.8016 37.7437 2.67861 38.5703 2.75306 39.3911C2.8275 40.2119 3.09721 41.003 3.53968 41.6983C3.98215 42.3936 4.58454 42.973 5.29654 43.388C6.00855 43.8031 6.80952 44.0418 7.63258 44.0842" stroke="#ED4C5C" stroke-width="4" stroke-linecap="round" stroke-linejoin="round"/>
</svg>
